<svg xmlns="http://www.w3.org/2000/svg" width="28.598" height="31.86" viewBox="0 0 28.598 31.86">
  <g id="notification_web" transform="translate(9674.896 8448.93)">
    <g id="Group_4305" data-name="Group 4305" transform="translate(-9680.17 -8452.573)">
      <path id="Path_4348" data-name="Path 4348" d="M13.787,6.262a3.262,3.262,0,1,1,6.524,0,11.418,11.418,0,0,1,6.524,9.787v4.893A6.524,6.524,0,0,0,30.1,25.835H4a6.524,6.524,0,0,0,3.262-4.893V16.049a11.418,11.418,0,0,1,6.524-9.787" transform="translate(2.524 1.893)" fill="none" stroke="#263238" stroke-linecap="round" stroke-linejoin="round" stroke-width="2.5"/>
      <path id="Path_4349" data-name="Path 4349" d="M9,17v1.631a4.893,4.893,0,0,0,9.787,0V17" transform="translate(5.68 10.729)" fill="none" stroke="#263238" stroke-linecap="round" stroke-linejoin="round" stroke-width="2.5"/>
    </g>
  </g>
</svg>
