<svg xmlns="http://www.w3.org/2000/svg" width="45.575" height="45.575" viewBox="0 0 45.575 45.575"><defs><style>.a,.b{fill:none;}.b{stroke:#fff;stroke-linecap:round;stroke-linejoin:round;stroke-width:2.5px;}</style></defs><path class="a" d="M0,0H45.575V45.575H0Z"/><path class="b" d="M30.889,23.889l-5.7-5.7H11.9a1.9,1.9,0,0,1-1.9-1.9V4.9A1.9,1.9,0,0,1,11.9,3H28.99a1.9,1.9,0,0,1,1.9,1.9v18.99" transform="translate(8.99 2.697)"/><path class="b" d="M23.889,19.495v3.8a1.9,1.9,0,0,1-1.9,1.9H8.7L3,30.889V11.9A1.9,1.9,0,0,1,4.9,10H8.7" transform="translate(2.697 8.99)"/></svg>